HIERARCHY
ROOT Hips
{
	OFFSET 0.000000 83.214638 0.000000
	CHANNELS 6 Xposition Yposition Zposition Xrotation Yrotation Zrotation
	JOINT Pelvis
	{
		OFFSET 0.000000 0.000000 0.000000
		CHANNELS 3 Xrotation Yrotation Zrotation
		JOINT LeftUpLeg
		{
			OFFSET 8.479700 -4.795502 -0.379100
			CHANNELS 3 Xrotation Yrotation Zrotation
			JOINT LeftLeg
			{
				OFFSET 0.024144 -32.555107 0.112900
				CHANNELS 3 Xrotation Yrotation Zrotation
				JOINT LeftFoot
				{
					OFFSET -0.024144 -32.638630 -3.012600
					CHANNELS 3 Xrotation Yrotation Zrotation
					JOINT LeftToeBase
					{
						OFFSET 0.970200 -13.225400 11.864200
						CHANNELS 3 Xrotation Yrotation Zrotation
						End Site
						{
							OFFSET 0.000000 12.319262 0.000000
						}
					}
					JOINT LFootTongue
					{
						OFFSET 1.142400 -1.059800 6.665200
						CHANNELS 3 Xrotation Yrotation Zrotation
						End Site
						{
							OFFSET 0.000000 12.319262 0.000000
						}
					}
				}
				JOINT LeftPantLeg
				{
					OFFSET 0.918482 -16.533964 -2.284700
					CHANNELS 3 Xrotation Yrotation Zrotation
					End Site
					{
						OFFSET 0.350399 24.744368 0.000000
					}
				}
			}
		}
		JOINT RightUpLeg
		{
			OFFSET -8.479700 -4.795502 -0.379100
			CHANNELS 3 Xrotation Yrotation Zrotation
			JOINT RightLeg
			{
				OFFSET -0.023144 -32.555092 0.112900
				CHANNELS 3 Xrotation Yrotation Zrotation
				JOINT RightFoot
				{
					OFFSET 0.023144 -32.638641 -3.012700
					CHANNELS 3 Xrotation Yrotation Zrotation
					JOINT RightToeBase
					{
						OFFSET -0.970200 -13.225400 11.864200
						CHANNELS 3 Xrotation Yrotation Zrotation
						End Site
						{
							OFFSET 0.000000 12.319244 0.000000
						}
					}
					JOINT RFootTongue
					{
						OFFSET -1.142200 -1.059800 6.665200
						CHANNELS 3 Xrotation Yrotation Zrotation
						End Site
						{
							OFFSET 0.000000 12.319243 0.000000
						}
					}
				}
				JOINT RightPantLeg
				{
					OFFSET -0.919482 -16.533978 -2.284800
					CHANNELS 3 Xrotation Yrotation Zrotation
					End Site
					{
						OFFSET -0.350400 24.744419 0.000000
					}
				}
			}
		}
	}
	JOINT Spine
	{
		OFFSET 0.000000 7.722000 1.166200
		CHANNELS 3 Xrotation Yrotation Zrotation
		JOINT Spine1
		{
			OFFSET 0.000000 12.024101 0.248800
			CHANNELS 3 Xrotation Yrotation Zrotation
			JOINT Spine2
			{
				OFFSET 0.000000 11.502998 -0.491200
				CHANNELS 3 Xrotation Yrotation Zrotation
				JOINT Neck
				{
					OFFSET 0.000000 18.430702 -3.123100
					CHANNELS 3 Xrotation Yrotation Zrotation
					JOINT Head
					{
						OFFSET 0.000000 9.051102 1.034000
						CHANNELS 3 Xrotation Yrotation Zrotation
						JOINT HairB
						{
							OFFSET 0.208400 24.786102 24.822300
							CHANNELS 3 Xrotation Yrotation Zrotation
							End Site
							{
								OFFSET 0.000000 32.263779 0.000000
							}
						}
						JOINT HairA
						{
							OFFSET -7.081100 24.428299 23.196600
							CHANNELS 3 Xrotation Yrotation Zrotation
							End Site
							{
								OFFSET 0.000000 32.263779 0.000000
							}
						}
						JOINT Hat
						{
							OFFSET 16.728800 15.048294 -15.439601
							CHANNELS 3 Xrotation Yrotation Zrotation
							End Site
							{
								OFFSET 0.000000 32.263779 0.000000
							}
						}
					}
				}
				JOINT LeftShoulder
				{
					OFFSET 6.197800 13.665199 -4.064700
					CHANNELS 3 Xrotation Yrotation Zrotation
					JOINT LeftArm
					{
						OFFSET 7.778100 -0.187103 -1.709300
						CHANNELS 3 Xrotation Yrotation Zrotation
						JOINT LeftForeArm
						{
							OFFSET 22.049376 0.000000 0.000000
							CHANNELS 3 Xrotation Yrotation Zrotation
							JOINT LeftHand
							{
								OFFSET 23.009392 0.000000 0.000000
								CHANNELS 3 Xrotation Yrotation Zrotation
								JOINT LeftHandThumb1
								{
									OFFSET 3.507191 -2.063065 3.133727
									CHANNELS 3 Xrotation Yrotation Zrotation
									JOINT LeftHandThumb2
									{
										OFFSET 3.101337 -1.790558 1.790558
										CHANNELS 3 Xrotation Yrotation Zrotation
										JOINT LeftHandThumb3
										{
											OFFSET 3.058640 -1.765907 1.765906
											CHANNELS 3 Xrotation Yrotation Zrotation
											End Site
											{
												OFFSET -0.415260 3.926476 -0.049563
											}
										}
									}
								}
								JOINT LeftHandIndex1
								{
									OFFSET 11.334419 -0.901459 3.706815
									CHANNELS 3 Xrotation Yrotation Zrotation
									JOINT LeftHandIndex2
									{
										OFFSET 3.283112 0.000000 0.000000
										CHANNELS 3 Xrotation Yrotation Zrotation
										JOINT LeftHandIndex3
										{
											OFFSET 3.323853 0.000000 0.000000
											CHANNELS 3 Xrotation Yrotation Zrotation
											End Site
											{
												OFFSET -1.135597 3.097809 0.402452
											}
										}
									}
								}
								JOINT LeftHandMiddle1
								{
									OFFSET 11.335861 0.000000 0.000000
									CHANNELS 3 Xrotation Yrotation Zrotation
									JOINT LeftHandMiddle2
									{
										OFFSET 3.410492 0.000000 0.000000
										CHANNELS 3 Xrotation Yrotation Zrotation
										JOINT LeftHandMiddle3
										{
											OFFSET 3.312172 0.000000 0.000000
											CHANNELS 3 Xrotation Yrotation Zrotation
											End Site
											{
												OFFSET -1.150200 3.080154 0.400270
											}
										}
									}
								}
								JOINT LeftHandRing1
								{
									OFFSET 11.514786 -0.013176 -3.003090
									CHANNELS 3 Xrotation Yrotation Zrotation
									JOINT LeftHandRing2
									{
										OFFSET 3.053307 0.000000 0.000000
										CHANNELS 3 Xrotation Yrotation Zrotation
										JOINT LeftHandRing3
										{
											OFFSET 3.295807 0.000000 0.000000
											CHANNELS 3 Xrotation Yrotation Zrotation
											End Site
											{
												OFFSET -1.281006 3.013344 0.375733
											}
										}
									}
								}
								JOINT LeftHandPinky1
								{
									OFFSET 10.518692 -0.960396 -5.730441
									CHANNELS 3 Xrotation Yrotation Zrotation
									JOINT LeftHandPinky2
									{
										OFFSET 2.861649 0.000000 0.000000
										CHANNELS 3 Xrotation Yrotation Zrotation
										JOINT LeftHandPinky3
										{
											OFFSET 2.863380 0.000000 0.000000
											CHANNELS 3 Xrotation Yrotation Zrotation
											End Site
											{
												OFFSET -0.843597 2.711159 0.369971
											}
										}
									}
								}
							}
							JOINT LSleeve
							{
								OFFSET 6.676277 -0.344902 -1.011730
								CHANNELS 3 Xrotation Yrotation Zrotation
								End Site
								{
									OFFSET 0.000000 14.885353 0.000000
								}
							}
						}
					}
				}
				JOINT RightShoulder
				{
					OFFSET -6.197800 13.665199 -4.064700
					CHANNELS 3 Xrotation Yrotation Zrotation
					JOINT RightArm
					{
						OFFSET -7.778100 -0.187103 -1.709300
						CHANNELS 3 Xrotation Yrotation Zrotation
						JOINT RightForeArm
						{
							OFFSET -22.049376 0.000000 0.000000
							CHANNELS 3 Xrotation Yrotation Zrotation
							JOINT RightHand
							{
								OFFSET -23.009392 0.000000 0.000000
								CHANNELS 3 Xrotation Yrotation Zrotation
								JOINT RightHandThumb1
								{
									OFFSET -3.507191 -2.063065 3.133727
									CHANNELS 3 Xrotation Yrotation Zrotation
									JOINT RightHandThumb2
									{
										OFFSET -3.101337 -1.790558 1.790558
										CHANNELS 3 Xrotation Yrotation Zrotation
										JOINT RightHandThumb3
										{
											OFFSET -3.058640 -1.765907 1.765906
											CHANNELS 3 Xrotation Yrotation Zrotation
											End Site
											{
												OFFSET 0.415260 3.926476 -0.049563
											}
										}
									}
								}
								JOINT RightHandIndex1
								{
									OFFSET -11.334419 -0.901459 3.706815
									CHANNELS 3 Xrotation Yrotation Zrotation
									JOINT RightHandIndex2
									{
										OFFSET -3.283112 0.000000 0.000000
										CHANNELS 3 Xrotation Yrotation Zrotation
										JOINT RightHandIndex3
										{
											OFFSET -3.323853 0.000000 0.000000
											CHANNELS 3 Xrotation Yrotation Zrotation
											End Site
											{
												OFFSET 1.135597 3.097809 0.402452
											}
										}
									}
								}
								JOINT RightHandMiddle1
								{
									OFFSET -11.335861 0.000000 0.000000
									CHANNELS 3 Xrotation Yrotation Zrotation
									JOINT RightHandMiddle2
									{
										OFFSET -3.410492 0.000000 0.000000
										CHANNELS 3 Xrotation Yrotation Zrotation
										JOINT RightHandMiddle3
										{
											OFFSET -3.312172 0.000000 0.000000
											CHANNELS 3 Xrotation Yrotation Zrotation
											End Site
											{
												OFFSET 1.150200 3.080154 0.400270
											}
										}
									}
								}
								JOINT RightHandRing1
								{
									OFFSET -11.514786 -0.013176 -3.003090
									CHANNELS 3 Xrotation Yrotation Zrotation
									JOINT RightHandRing2
									{
										OFFSET -3.053307 0.000000 0.000000
										CHANNELS 3 Xrotation Yrotation Zrotation
										JOINT RightHandRing3
										{
											OFFSET -3.295807 0.000000 0.000000
											CHANNELS 3 Xrotation Yrotation Zrotation
											End Site
											{
												OFFSET 1.281006 3.013344 0.375733
											}
										}
									}
								}
								JOINT RightHandPinky1
								{
									OFFSET -10.518692 -0.960396 -5.730441
									CHANNELS 3 Xrotation Yrotation Zrotation
									JOINT RightHandPinky2
									{
										OFFSET -2.861649 0.000000 0.000000
										CHANNELS 3 Xrotation Yrotation Zrotation
										JOINT RightHandPinky3
										{
											OFFSET -2.863380 0.000000 0.000000
											CHANNELS 3 Xrotation Yrotation Zrotation
											End Site
											{
												OFFSET 0.843597 2.711159 0.369971
											}
										}
									}
								}
							}
							JOINT RSleeve
							{
								OFFSET -6.676277 -0.344902 -1.011730
								CHANNELS 3 Xrotation Yrotation Zrotation
								End Site
								{
									OFFSET 0.000000 14.885353 0.000000
								}
							}
						}
					}
				}
				JOINT Backpack
				{
					OFFSET 0.000000 -2.471497 36.677502
					CHANNELS 3 Xrotation Yrotation Zrotation
					End Site
					{
						OFFSET 0.000000 20.427315 0.000000
					}
				}
				JOINT Hood
				{
					OFFSET 0.000000 18.754097 -10.431000
					CHANNELS 3 Xrotation Yrotation Zrotation
					JOINT Hood1
					{
						OFFSET 0.000000 -5.011002 -7.685901
						CHANNELS 3 Xrotation Yrotation Zrotation
						End Site
						{
							OFFSET 0.000000 9.175140 0.000000
						}
					}
				}
				JOINT LHoodieString
				{
					OFFSET 5.250500 16.397697 3.089900
					CHANNELS 3 Xrotation Yrotation Zrotation
					JOINT LHoodieString1
					{
						OFFSET 0.257700 -6.364304 3.694600
						CHANNELS 3 Xrotation Yrotation Zrotation
						JOINT LHoodieString2
						{
							OFFSET 0.000000 -9.643799 2.679100
							CHANNELS 3 Xrotation Yrotation Zrotation
							End Site
							{
								OFFSET 0.000000 10.009018 0.000000
							}
						}
					}
				}
				JOINT RHoodieString
				{
					OFFSET -5.250500 16.397697 3.089900
					CHANNELS 3 Xrotation Yrotation Zrotation
					JOINT RHoodieString1
					{
						OFFSET -0.257700 -6.364304 3.694600
						CHANNELS 3 Xrotation Yrotation Zrotation
						JOINT RHoodieString2
						{
							OFFSET 0.000000 -9.643799 2.679100
							CHANNELS 3 Xrotation Yrotation Zrotation
							End Site
							{
								OFFSET 0.000000 10.009018 0.000000
							}
						}
					}
				}
			}
			JOINT LBackpack_Strap
			{
				OFFSET 15.223200 -7.719803 -6.610900
				CHANNELS 3 Xrotation Yrotation Zrotation
				End Site
				{
					OFFSET 0.000000 16.040596 0.000000
				}
			}
			JOINT RBackpack_Strap
			{
				OFFSET -15.223000 -7.719803 -6.610900
				CHANNELS 3 Xrotation Yrotation Zrotation
				End Site
				{
					OFFSET 0.000000 16.040596 0.000000
				}
			}
		}
	}
	JOINT BoyFacialAnim_Joint
	{
		OFFSET 1.000000 -82.208099 -1.550900
		CHANNELS 3 Xrotation Yrotation Zrotation
		End Site
		{
			OFFSET 0.000000 30.012791 0.000000
		}
	}
}
MOTION
Frames: 4
Frame Time: 0.016667
42.727135 77.488068 22.442648 -10.173190 -57.637439 -10.733037 0.000000 0.000001 -0.000000 -14.356974 13.310487 5.573403 43.877624 -9.300431 1.437232 -25.646389 14.502988 4.092346 0.000000 -0.000000 -0.000000 0.000000 -0.000000 -0.000000 -0.000000 0.000001 0.000001 -13.225836 15.011318 -15.810715 37.934300 -6.491176 -7.967265 32.827812 0.336332 24.603977 0.000002 0.000000 -0.000001 0.000002 0.000000 -0.000001 0.000001 0.000002 -0.000004 9.217946 8.891335 -0.346524 2.556080 17.404592 -2.385636 3.099506 13.576348 -1.746531 -0.834489 -4.108952 0.255298 1.539946 -45.055947 4.111459 0.000000 -0.000001 -0.000001 0.000000 -0.000001 -0.000001 0.000000 -0.000001 -0.000001 -6.510681 -24.283962 -29.301515 -16.491707 27.629860 -48.402761 0.000004 -37.042356 -0.000010 20.414551 12.547357 -11.679943 -0.367418 1.022221 8.846102 11.332640 25.661871 5.956434 -0.000000 0.000000 -0.000003 -3.147027 -1.008764 -32.685430 0.795793 2.949891 -30.188866 -0.000001 0.000001 -0.000002 1.080581 5.663177 -36.569997 0.703196 2.784826 -28.337840 0.000002 0.000002 0.000000 2.638192 7.725024 -36.880450 0.871328 3.075883 -31.625893 -0.000000 0.000002 -0.000003 4.773564 10.152470 -39.332058 0.944666 3.191731 -32.967305 -0.000000 0.000001 -0.000000 0.000001 0.000003 -0.000001 16.094130 -29.062595 21.606098 17.231230 -22.622066 41.644811 0.000011 113.407512 0.000001 50.459023 7.307184 26.799244 11.446977 0.444901 -2.639159 0.868423 -5.095145 -5.270574 0.000004 0.000004 0.000002 -1.101635 2.714043 12.099560 0.231091 -1.450239 18.106191 -0.000002 0.000001 0.000002 -0.590494 -0.253871 13.946819 0.529554 -2.158729 27.562994 -0.000004 0.000002 0.000002 0.152628 -3.304656 16.160603 1.052579 -2.950895 39.255911 -0.000000 -0.000002 0.000002 1.396642 -6.662549 20.820583 0.310323 -1.673172 21.012860 -0.000000 -0.000000 0.000000 0.000002 0.000000 0.000001 0.000000 -0.000001 0.000000 0.000000 -0.000001 0.000000 0.000000 -0.000001 0.000000 0.000000 -0.000001 0.000000 0.000000 -0.000001 0.000000 -0.000001 -0.000001 0.000000 0.000000 -0.000001 0.000000 0.000000 -0.000001 0.000000 -0.000001 -0.000001 0.000000 -0.000000 0.000001 0.000000 -0.000000 0.000001 0.000000 0.000000 0.000001 -0.000000 
42.757992 77.381042 23.375675 -10.765941 -56.872383 -11.138198 0.000000 -0.000002 -0.000000 -13.379735 13.281744 4.540063 44.087744 -9.779686 1.734632 -26.406138 14.687179 4.966448 0.000000 0.000000 0.000000 0.000000 0.000000 -0.000000 0.000001 0.000001 -0.000001 -15.748244 16.735435 -13.678834 43.667913 -5.689500 -8.348130 30.408190 1.858058 22.103976 -0.000000 0.000000 -0.000000 -0.000000 0.000000 -0.000000 0.000002 0.000001 0.000000 9.663948 7.953987 -0.488819 2.662959 17.145942 -2.401210 3.209016 13.582543 -1.840704 -0.835034 -4.107087 0.327522 1.616712 -45.330152 4.399508 0.000000 0.000001 -0.000000 0.000000 0.000001 -0.000000 0.000000 0.000001 -0.000000 -6.690963 -24.917025 -29.325755 -17.150494 26.242821 -47.937727 0.000002 -37.261400 0.000001 18.651169 12.125985 -10.193069 -0.303177 1.156293 8.901287 11.336645 25.654616 5.977716 -0.000000 -0.000002 0.000001 -3.164690 -0.956356 -33.003583 0.813129 2.979442 -30.524040 0.000005 -0.000003 -0.000004 1.100508 5.692202 -36.934644 0.718679 2.813304 -28.654816 0.000001 0.000001 0.000002 2.669905 7.741934 -37.250967 0.890056 3.106044 -31.973219 0.000000 0.000003 0.000000 4.816364 10.146111 -39.734086 0.963090 3.219905 -33.296619 -0.000002 -0.000002 -0.000000 -0.000000 0.000003 -0.000001 16.288813 -29.166718 21.993795 17.892155 -24.268775 42.118730 0.000037 113.885447 -0.000038 41.063821 5.287845 26.351232 11.448282 0.442804 -2.640234 0.869864 -5.099415 -5.271808 0.000000 -0.000001 0.000001 -1.117752 2.690268 12.294187 0.236131 -1.465565 18.304403 -0.000004 -0.000001 0.000003 -0.596858 -0.274219 14.142335 0.537019 -2.172929 27.760242 0.000004 0.000000 0.000002 0.155908 -3.319389 16.357181 1.061196 -2.961381 39.422947 0.000001 -0.000001 0.000000 1.410556 -6.670696 21.018333 0.316091 -1.688124 21.209793 0.000007 -0.000001 0.000002 0.000002 0.000001 -0.000000 0.000001 0.000000 -0.000000 0.000001 0.000000 -0.000000 0.000001 0.000000 -0.000000 0.000001 0.000000 -0.000000 0.000001 0.000000 -0.000000 0.000000 0.000000 -0.000000 0.000001 0.000000 -0.000000 0.000001 0.000000 -0.000000 0.000000 0.000000 -0.000000 0.000000 -0.000002 0.000001 0.000000 -0.000002 0.000001 0.000000 -0.000002 -0.000000 
42.782730 77.371529 24.308393 -11.219109 -55.884509 -11.540936 -0.000000 0.000001 0.000000 -12.305890 13.222328 3.701251 43.934434 -9.971261 1.998894 -26.889823 14.347765 5.662900 -0.000000 -0.000002 -0.000000 -0.000000 -0.000002 -0.000000 -0.000001 -0.000001 0.000000 -18.338498 18.040669 -11.172105 49.253976 -5.504214 -8.521105 26.405400 4.284696 19.412537 0.000001 0.000001 0.000001 0.000001 0.000001 0.000001 -0.000002 -0.000000 -0.000001 10.077597 6.904579 -0.425760 2.778479 16.848641 -2.408986 3.327778 13.548342 -1.925066 -0.836518 -4.091357 0.390946 1.663307 -45.506610 4.655206 0.000000 -0.000001 0.000001 0.000000 -0.000001 0.000001 0.000000 -0.000001 0.000001 -6.858132 -25.585235 -29.281233 -17.849564 24.629990 -47.582014 0.000004 -37.102390 0.000007 17.190203 11.684770 -8.623620 -0.239672 1.289017 8.955660 11.340614 25.647439 5.998799 -0.000000 0.000001 0.000003 -3.181876 -0.904403 -33.318431 0.830462 3.008598 -30.855725 0.000002 -0.000001 -0.000002 1.120394 5.720802 -37.295531 0.734147 2.841407 -28.968516 -0.000002 0.000000 -0.000003 2.701366 7.758503 -37.617680 0.908765 3.135781 -32.316962 -0.000003 0.000001 0.000003 4.858572 10.139612 -40.131944 0.981468 3.247685 -33.622521 -0.000002 -0.000001 -0.000000 0.000001 0.000002 -0.000002 16.428056 -29.286147 22.283888 18.343098 -25.660572 42.553042 0.000067 114.043949 -0.000070 34.092514 4.326357 26.246913 11.449748 0.440215 -2.641569 0.872411 -5.108712 -5.273680 -0.000000 0.000003 0.000004 -1.093846 2.717385 12.021022 0.229015 -1.443896 18.024087 -0.000002 0.000000 0.000002 -0.586990 -0.249517 13.867928 0.526562 -2.152977 27.483373 0.000001 -0.000002 0.000001 0.150488 -3.295864 16.081655 1.039533 -2.934860 39.001528 0.000001 -0.000001 -0.000001 1.388037 -6.651370 20.741464 0.307999 -1.667119 20.933188 0.000000 -0.000001 0.000002 -0.000002 0.000000 -0.000000 0.000001 -0.000002 0.000000 0.000001 -0.000002 0.000000 0.000001 -0.000002 0.000000 0.000001 -0.000002 0.000000 0.000001 -0.000002 0.000000 -0.000000 -0.000000 -0.000000 0.000001 -0.000002 0.000000 0.000001 -0.000002 0.000000 -0.000000 -0.000000 -0.000000 0.000000 -0.000003 -0.000000 0.000000 -0.000003 -0.000000 -0.000000 0.000001 0.000000 
42.788429 77.434525 25.234180 -11.428271 -54.633006 -11.826327 -0.000000 -0.000001 0.000000 -11.238707 13.132394 3.106686 43.512058 -9.935250 2.169549 -27.146824 13.445081 6.212167 -0.000000 0.000000 -0.000000 -0.000000 0.000000 0.000000 -0.000002 0.000006 -0.000002 -20.793309 18.836565 -8.568944 54.020188 -5.736803 -8.416793 22.169022 7.578520 16.923650 0.000001 0.000002 0.000003 0.000001 0.000002 0.000003 0.000002 -0.000002 0.000001 10.411350 5.687639 -0.200838 2.886334 16.500550 -2.402981 3.439226 13.460944 -1.993052 -0.825260 -4.058135 0.451981 1.734940 -45.565216 4.903149 0.000000 -0.000000 -0.000000 0.000000 -0.000000 -0.000000 0.000000 -0.000000 -0.000000 -7.018226 -26.326411 -29.169300 -18.434949 23.003983 -47.374014 -0.000007 -36.923258 -0.000007 16.093150 11.349625 -7.118661 -0.177012 1.420188 9.009175 11.344540 25.640335 6.019593 0.000002 0.000000 0.000003 -3.198548 -0.852991 -33.629317 0.847729 3.037280 -31.183317 0.000003 -0.000003 -0.000006 1.140228 5.748946 -37.651978 0.749563 2.869063 -29.278313 -0.000002 0.000000 -0.000003 2.732511 7.774681 -37.979817 0.927434 3.165037 -32.656439 0.000001 0.000004 0.000000 4.900131 10.132982 -40.524851 0.999774 3.275002 -33.944415 -0.000002 0.000002 -0.000002 0.000000 -0.000001 0.000000 16.511892 -29.414691 22.476725 18.832076 -26.862719 43.040499 0.000103 114.021348 -0.000113 28.272827 3.883404 26.345216 11.451387 0.436210 -2.643292 0.877846 -5.126585 -5.276861 0.000003 0.000004 0.000001 -1.053554 2.761293 11.566196 0.217391 -1.407689 17.556967 0.000001 0.000000 0.000002 -0.570155 -0.209055 13.411053 0.509373 -2.119645 27.022392 -0.000000 0.000000 -0.000002 0.142053 -3.257693 15.622902 1.001905 -2.887836 38.260725 0.000002 -0.000001 -0.000001 1.350208 -6.617244 20.280715 0.294743 -1.632056 20.472679 -0.000002 0.000001 0.000000 -0.000001 0.000002 0.000001 0.000001 0.000001 -0.000000 0.000001 0.000001 -0.000000 0.000001 0.000001 -0.000000 0.000001 0.000001 -0.000000 0.000001 0.000001 -0.000000 -0.000000 -0.000001 -0.000000 0.000001 0.000001 -0.000000 0.000001 0.000001 -0.000000 -0.000000 -0.000001 -0.000000 0.000001 -0.000003 0.000000 0.000001 -0.000003 0.000000 -0.000000 -0.000001 0.000000 
